<mxfile host="app.diagrams.net" modified="2024-05-16T07:39:41.795Z" agent="Mozilla/5.0 (X11; Linux x86_64; rv:109.0) Gecko/20100101 Firefox/115.0" etag="sIouWu7eV81jt8hs8KKb" version="24.2.5" type="device">
  <diagram id="k4pNC1rw3EwO7Iqltvwy" name="Page-1">
    <mxGraphModel dx="1194" dy="729" grid="1" gridSize="10" guides="1" tooltips="1" connect="1" arrows="1" fold="1" page="1" pageScale="1" pageWidth="827" pageHeight="1169" math="0" shadow="0">
      <root>
        <mxCell id="0" />
        <mxCell id="1" parent="0" />
        <mxCell id="ECoGbR0762pp9iFnCjb--15" value="" style="rounded=0;whiteSpace=wrap;html=1;fontSize=18;fillColor=#dae8fc;strokeColor=#6c8ebf;" parent="1" vertex="1">
          <mxGeometry x="310" y="362" width="270" height="308" as="geometry" />
        </mxCell>
        <mxCell id="ECoGbR0762pp9iFnCjb--5" value="" style="outlineConnect=0;dashed=0;verticalLabelPosition=bottom;verticalAlign=top;align=center;html=1;shape=mxgraph.aws3.internet_3;fillColor=#dae8fc;strokeColor=#6c8ebf;" parent="1" vertex="1">
          <mxGeometry x="414" y="280" width="68.88" height="44" as="geometry" />
        </mxCell>
        <mxCell id="_etOdeRrxOBRMlxFL1JE-7" value="" style="fontColor=#0066CC;verticalAlign=top;verticalLabelPosition=bottom;labelPosition=center;align=center;html=1;outlineConnect=0;fillColor=#CCCCCC;strokeColor=#6881B3;gradientColor=none;gradientDirection=north;strokeWidth=2;shape=mxgraph.networks.hub;" parent="1" vertex="1">
          <mxGeometry x="389.13" y="480" width="120" height="30" as="geometry" />
        </mxCell>
        <mxCell id="_etOdeRrxOBRMlxFL1JE-13" value="" style="edgeStyle=none;rounded=0;orthogonalLoop=1;jettySize=auto;html=1;endArrow=none;endFill=0;startArrow=none;" parent="1" source="ECoGbR0762pp9iFnCjb--5" target="ECoGbR0762pp9iFnCjb--2" edge="1">
          <mxGeometry relative="1" as="geometry">
            <mxPoint x="450" y="270" as="sourcePoint" />
            <mxPoint x="450" y="370" as="targetPoint" />
          </mxGeometry>
        </mxCell>
        <mxCell id="_etOdeRrxOBRMlxFL1JE-18" value="HOST" style="text;html=1;resizable=0;autosize=1;align=center;verticalAlign=middle;points=[];fillColor=none;strokeColor=none;rounded=0;" parent="1" vertex="1">
          <mxGeometry x="304" y="650" width="50" height="20" as="geometry" />
        </mxCell>
        <mxCell id="_etOdeRrxOBRMlxFL1JE-19" value="Internet" style="text;html=1;resizable=0;autosize=1;align=center;verticalAlign=middle;points=[];fillColor=none;strokeColor=none;rounded=0;" parent="1" vertex="1">
          <mxGeometry x="418.25" y="302" width="60" height="20" as="geometry" />
        </mxCell>
        <mxCell id="-73Oau5m9B-L7gfSsbPc-15" value="" style="edgeStyle=orthogonalEdgeStyle;rounded=0;orthogonalLoop=1;jettySize=auto;html=1;endArrow=none;endFill=0;" parent="1" source="-73Oau5m9B-L7gfSsbPc-9" target="_etOdeRrxOBRMlxFL1JE-7" edge="1">
          <mxGeometry relative="1" as="geometry">
            <mxPoint x="414" y="489" as="targetPoint" />
            <Array as="points">
              <mxPoint x="370" y="496" />
            </Array>
          </mxGeometry>
        </mxCell>
        <mxCell id="-73Oau5m9B-L7gfSsbPc-9" value="" style="sketch=0;aspect=fixed;html=1;points=[];align=center;image;fontSize=12;image=img/lib/mscae/Virtual_Machine_2.svg;" parent="1" vertex="1">
          <mxGeometry x="346" y="562" width="50" height="46" as="geometry" />
        </mxCell>
        <mxCell id="-73Oau5m9B-L7gfSsbPc-17" value="" style="edgeStyle=orthogonalEdgeStyle;rounded=0;orthogonalLoop=1;jettySize=auto;html=1;endArrow=none;endFill=0;exitX=0.48;exitY=-0.065;exitDx=0;exitDy=0;exitPerimeter=0;" parent="1" source="-73Oau5m9B-L7gfSsbPc-10" target="_etOdeRrxOBRMlxFL1JE-7" edge="1">
          <mxGeometry relative="1" as="geometry">
            <mxPoint x="485" y="489" as="targetPoint" />
            <Array as="points">
              <mxPoint x="524" y="496" />
              <mxPoint x="460" y="496" />
            </Array>
          </mxGeometry>
        </mxCell>
        <mxCell id="-73Oau5m9B-L7gfSsbPc-10" value="" style="sketch=0;aspect=fixed;html=1;points=[];align=center;image;fontSize=12;image=img/lib/mscae/Virtual_Machine_2.svg;" parent="1" vertex="1">
          <mxGeometry x="500" y="562" width="50" height="46" as="geometry" />
        </mxCell>
        <mxCell id="-73Oau5m9B-L7gfSsbPc-21" value="&lt;div&gt;Linux&lt;/div&gt;&lt;div&gt;Bridge&lt;br&gt;&lt;/div&gt;&lt;div&gt;podman0&lt;/div&gt;" style="text;html=1;resizable=0;autosize=1;align=center;verticalAlign=middle;points=[];fillColor=none;strokeColor=none;rounded=0;" parent="1" vertex="1">
          <mxGeometry x="323.25" y="442" width="70" height="60" as="geometry" />
        </mxCell>
        <mxCell id="-73Oau5m9B-L7gfSsbPc-24" value="10.88.0.1" style="text;html=1;resizable=0;autosize=1;align=center;verticalAlign=middle;points=[];fillColor=none;strokeColor=none;rounded=0;" parent="1" vertex="1">
          <mxGeometry x="464" y="455" width="70" height="30" as="geometry" />
        </mxCell>
        <mxCell id="ECoGbR0762pp9iFnCjb--3" value="" style="edgeStyle=orthogonalEdgeStyle;rounded=0;orthogonalLoop=1;jettySize=auto;html=1;endArrow=none;endFill=0;" parent="1" source="ECoGbR0762pp9iFnCjb--2" target="_etOdeRrxOBRMlxFL1JE-7" edge="1">
          <mxGeometry relative="1" as="geometry" />
        </mxCell>
        <mxCell id="ECoGbR0762pp9iFnCjb--2" value="" style="sketch=0;pointerEvents=1;shadow=0;dashed=0;html=1;strokeColor=#666666;labelPosition=center;verticalLabelPosition=bottom;verticalAlign=top;outlineConnect=0;align=center;shape=mxgraph.office.servers.physical_host;fillColor=#f5f5f5;fontColor=#333333;" parent="1" vertex="1">
          <mxGeometry x="428.25" y="382" width="41.75" height="58" as="geometry" />
        </mxCell>
        <mxCell id="ECoGbR0762pp9iFnCjb--4" value="&lt;div&gt;&lt;font color=&quot;#FF3333&quot;&gt;El host &lt;br&gt;&lt;/font&gt;&lt;/div&gt;&lt;div&gt;&lt;font color=&quot;#FF3333&quot;&gt;funciona &lt;br&gt;&lt;/font&gt;&lt;/div&gt;&lt;div&gt;&lt;font color=&quot;#FF3333&quot;&gt;como NAT&lt;br&gt;&lt;/font&gt;&lt;/div&gt;" style="text;html=1;resizable=0;autosize=1;align=center;verticalAlign=middle;points=[];fillColor=none;strokeColor=none;rounded=0;" parent="1" vertex="1">
          <mxGeometry x="500" y="386" width="70" height="50" as="geometry" />
        </mxCell>
        <mxCell id="ECoGbR0762pp9iFnCjb--9" value="&lt;div&gt;Contenedor1&lt;/div&gt;&lt;div&gt;10.88.0.2&lt;br&gt;&lt;/div&gt;" style="text;html=1;resizable=0;autosize=1;align=center;verticalAlign=middle;points=[];fillColor=none;strokeColor=none;rounded=0;" parent="1" vertex="1">
          <mxGeometry x="324" y="610" width="90" height="40" as="geometry" />
        </mxCell>
        <mxCell id="ECoGbR0762pp9iFnCjb--10" value="&lt;h2&gt;&lt;font size=&quot;1&quot;&gt;&lt;b style=&quot;font-size: 18px&quot;&gt;Red Privada basada en NAT&lt;/b&gt;&lt;/font&gt;&lt;/h2&gt;" style="text;html=1;resizable=0;autosize=1;align=center;verticalAlign=middle;points=[];fillColor=none;strokeColor=none;rounded=0;" parent="1" vertex="1">
          <mxGeometry x="323.25" y="665" width="250" height="50" as="geometry" />
        </mxCell>
        <mxCell id="ECoGbR0762pp9iFnCjb--12" value="&lt;div&gt;En el host&lt;/div&gt;&lt;div&gt;servidor &lt;br&gt;&lt;/div&gt;&lt;div&gt;DNS y DHCP&lt;br&gt;&lt;/div&gt;" style="text;html=1;resizable=0;autosize=1;align=center;verticalAlign=middle;points=[];fillColor=none;strokeColor=none;rounded=0;" parent="1" vertex="1">
          <mxGeometry x="334.12" y="382" width="90" height="50" as="geometry" />
        </mxCell>
        <mxCell id="ECoGbR0762pp9iFnCjb--13" value="eth0" style="text;html=1;resizable=0;autosize=1;align=center;verticalAlign=middle;points=[];fillColor=none;strokeColor=none;rounded=0;" parent="1" vertex="1">
          <mxGeometry x="442.88" y="362" width="40" height="20" as="geometry" />
        </mxCell>
        <mxCell id="r98kctM3TwXfsVfVOJC--1" value="" style="curved=1;endArrow=classic;html=1;rounded=0;fillColor=#e51400;strokeColor=#B20000;strokeWidth=4;" parent="1" target="ECoGbR0762pp9iFnCjb--13" edge="1">
          <mxGeometry width="50" height="50" relative="1" as="geometry">
            <mxPoint x="470" y="450" as="sourcePoint" />
            <mxPoint x="469.13" y="382" as="targetPoint" />
            <Array as="points">
              <mxPoint x="509.13" y="422" />
              <mxPoint x="489.13" y="392" />
            </Array>
          </mxGeometry>
        </mxCell>
        <mxCell id="MHocgcyIS5ZqbI75Damo-1" value="&lt;div&gt;Contenedor2&lt;/div&gt;&lt;div&gt;10.88.0.3&lt;br&gt;&lt;/div&gt;" style="text;html=1;resizable=0;autosize=1;align=center;verticalAlign=middle;points=[];fillColor=none;strokeColor=none;rounded=0;" parent="1" vertex="1">
          <mxGeometry x="480" y="608" width="90" height="40" as="geometry" />
        </mxCell>
      </root>
    </mxGraphModel>
  </diagram>
</mxfile>
